arm26_HoldHorizontal_states
version=1
nRows=13
nColumns=17
inDegrees=yes

# SIMM Motion File Header:
name arm26_HoldHorizontal_states
datacolumns 17
datarows 13
otherdata 1
range 0.03000000 0.05732035
endheader
time	r_shoulder_elev	r_elbow_flex	r_shoulder_elev_u	r_elbow_flex_u	TRIlong.activation	TRIlong.fiber_length	TRIlat.activation	TRIlat.fiber_length	TRImed.activation	TRImed.fiber_length	BIClong.activation	BIClong.fiber_length	BICshort.activation	BICshort.fiber_length	BRA.activation	BRA.fiber_length
      0.03000000	     90.00000018	      0.00000000	      0.00000000	      0.00000000	      0.02000000	      0.17921184	      0.02000000	      0.07049603	      0.10000000	      0.06496538	      0.10000000	      0.12721248	      0.02000000	      0.18188742	      0.02000000	      0.08688000
      0.03147071	     89.99731791	      0.00137953	     -3.64664097	      1.87359464	      0.02000000	      0.17921182	      0.02000000	      0.07049606	      0.10000000	      0.06496540	      0.10000000	      0.12721247	      0.02000000	      0.18188681	      0.02000000	      0.08688000
      0.03374470	     89.98263086	      0.00889165	     -9.26555020	      4.71957950	      0.02000000	      0.17921160	      0.02000000	      0.07049644	      0.10000000	      0.06496570	      0.10000000	      0.12721226	      0.02000000	      0.18188072	      0.02000000	      0.08688006
      0.03689097	     89.94132702	      0.02972713	    -16.97622142	      8.48707367	      0.02000000	      0.17921077	      0.02000000	      0.07049838	      0.10000000	      0.06496724	      0.10000000	      0.12721118	      0.02000000	      0.18185975	      0.02000000	      0.08688035
      0.04003723	     89.87590988	      0.06201958	    -24.59000376	     11.99199022	      0.02000000	      0.17920914	      0.02000000	      0.07050277	      0.10000000	      0.06497078	      0.10000000	      0.12720866	      0.02000000	      0.18182356	      0.02000000	      0.08688099
      0.04248098	     89.80867106	      0.09443609	    -30.42768259	     14.50666822	      0.02000000	      0.17920717	      0.02000000	      0.07050826	      0.10000000	      0.06497528	      0.10000000	      0.12720545	      0.02000000	      0.18178586	      0.02000000	      0.08688176
      0.04492473	     89.72725420	      0.13275825	    -36.19261609	     16.82294043	      0.02000000	      0.17920443	      0.02000000	      0.07051576	      0.10000000	      0.06498151	      0.10000000	      0.12720096	      0.02000000	      0.18173904	      0.02000000	      0.08688278
      0.04736848	     89.63183912	      0.17649553	    -41.88435463	     18.93928280	      0.02000000	      0.17920078	      0.02000000	      0.07052535	      0.10000000	      0.06498961	      0.10000000	      0.12719508	      0.02000000	      0.18168437	      0.02000000	      0.08688406
      0.04954131	     89.53539112	      0.21953461	    -46.88194784	     20.64935859	      0.02000000	      0.17919663	      0.02000000	      0.07053563	      0.10000000	      0.06499842	      0.10000000	      0.12718861	      0.02000000	      0.18162816	      0.02000000	      0.08688540
      0.05171415	     89.42814668	      0.26611962	    -51.82280246	     22.20519530	      0.02000000	      0.17919154	      0.02000000	      0.07054752	      0.10000000	      0.06500875	      0.10000000	      0.12718095	      0.02000000	      0.18156634	      0.02000000	      0.08688692
      0.05388698	     89.31022838	      0.31591821	    -56.70626858	     23.60628506	      0.02000000	      0.17918537	      0.02000000	      0.07056094	      0.10000000	      0.06502056	      0.10000000	      0.12717208	      0.02000000	      0.18149724	      0.02000000	      0.08688861
      0.05560366	     89.20959721	      0.35731906	    -60.52722449	     24.61259356	      0.02000000	      0.17917967	      0.02000000	      0.07057254	      0.10000000	      0.06503091	      0.10000000	      0.12716420	      0.02000000	      0.18143923	      0.02000000	      0.08689005
      0.05732035	     89.10243543	      0.40037048	    -64.31467400	     25.52942485	      0.02000000	      0.17917318	      0.02000000	      0.07058497	      0.10000000	      0.06504211	      0.10000000	      0.12715557	      0.02000000	      0.18137672	      0.02000000	      0.08689159
